PathFileType	4	(X/Y/Z)	Patient4_TMGait_0pt5_01_left_13.trc.trc
DataRate	CameraRate	NumFrames	NumMarkers	Units	OrigDataRate	OrigDataStartFrame	OrigNumFrames
74.866310160428	74.866310160428	4	33	mm	74.866310160428	18	       141
Frame#	Time	L.ASIS			Sacral			L.Shoulder			Chest			R.Shoulder			Neck			R.ASIS			R.Thigh.Superior			R.Thigh.Lateral			R.Thigh.Inferior			R.Patella			L.Thigh.Superior			L.Thigh.Lateral			L.Thigh.Inferior			L.Patella			L.Shank.Superior			L.Shank.Lateral			L.Shank.Inferior			R.Shank.Superior			R.Shank.Lateral			R.Shank.Inferior			R.Heel			R.Midfoot.Superior			R.Midfoot.Lateral			R.Toe			L.Heel			L.Midfoot.Lateral			L.Midfoot.Superior			L.Toe			L.Elbow			L.Wrist			R.Elbow			R.Wrist			
		X1	Y1	Z1	X2	Y2	Z2	X3	Y3	Z3	X4	Y4	Z4	X5	Y5	Z5	X6	Y6	Z6	X7	Y7	Z7	X8	Y8	Z8	X9	Y9	Z9	X10	Y10	Z10	X11	Y11	Z11	X12	Y12	Z12	X13	Y13	Z13	X14	Y14	Z14	X15	Y15	Z15	X16	Y16	Z16	X17	Y17	Z17	X18	Y18	Z18	X19	Y19	Z19	X20	Y20	Z20	X21	Y21	Z21	X22	Y22	Z22	X23	Y23	Z23	X24	Y24	Z24	X25	Y25	Z25	X26	Y26	Z26	X27	Y27	Z27	X28	Y28	Z28	X29	Y29	Z29	X30	Y30	Z30	X31	Y31	Z31	X32	Y32	Z32	X33	Y33	Z33	

18	17.557071428571	755.760502126702	964.849079523231	340.833612490012	564.128998781483	1008.376813577642	525.465350550689	703.255655383715	1437.095648160675	325.266683088691	831.367826731311	1367.603695214748	467.080536449791	776.150514562025	1439.003788788602	653.495918361360	726.784976849665	1497.437306150308	474.993016304974	800.509377020074	940.708408737719	612.188269571174	809.802174237391	731.447199791285	581.442989369073	719.597672949782	632.356368520883	649.341666154332	778.282507552430	572.567887931946	563.504217802079	766.261358524062	487.033165603208	569.901413635148	836.420076362119	778.388551475206	376.889986966036	792.534565868386	652.763429956875	299.855377684924	888.084174478480	590.897217162254	370.903995912901	916.912545894987	526.420684822291	367.416718400087	902.202757148601	455.191287348617	355.278122359817	843.325376110657	323.969309082730	298.360367834978	927.922791349635	226.764871140484	360.436549089665	733.637000436476	399.001269449837	577.514626309223	656.713228096501	299.093829544647	637.638558018764	693.015726029067	203.155978569813	574.345317223221	551.385099712016	41.999361662931	538.118872904834	720.026052691370	96.865057701655	583.215366297840	629.854692950648	35.953880114176	618.458106685440	838.039987237864	45.375734540445	619.736549207679	848.885049918566	38.483792836016	391.194371877660	928.230715901218	51.205730854104	317.113546623065	989.422950205733	135.688418660672	342.710276005801	1126.981377284748	120.605870519444	327.425986559527	579.742642003379	1097.768153973030	241.694368651849	556.531673071837	839.405231132197	253.581478353483	919.945876879543	1136.739875607036	768.051046888427	1135.340414891340	1223.972727854876	675.322187889911	
19	17.570428571429	755.297384125384	964.104217908230	339.657158988725	564.253319227902	1007.923268315004	524.882590635622	703.070619759449	1436.668912727377	324.514094935895	831.506712155334	1366.866873336327	465.819122453276	776.971428666301	1438.259443429056	652.344678597069	727.114460309085	1496.825670230491	474.223636986269	800.771301977346	940.126012608778	611.051612201761	808.244088684662	730.374653527011	580.656282397345	717.235129060310	631.766540731619	648.707769370946	775.449056897699	571.413026249372	562.972495005846	762.624615068734	485.936969221564	569.315559582854	835.556906478092	777.144801270874	375.194388289895	789.962897274034	651.186759790093	299.264196953538	886.054407203869	589.263998896195	369.201191394838	914.522144680103	525.087832703240	366.269586881519	900.137265202969	454.022063036280	354.476939784290	841.609197870342	322.422840337785	298.766021362162	927.273086672498	226.056082592784	360.406681597073	729.347678790953	398.285793837807	577.073667818807	651.838806801468	299.025666882071	637.396288373150	687.238459285933	202.766727055585	574.121087005511	544.728006148891	42.027777892556	538.182831914132	713.387837193228	96.759514469214	583.199550572756	623.176146660156	35.934457063892	618.472557647341	831.400275995574	45.153203773240	619.787167270727	849.496016951230	38.336904472990	392.859676374407	927.971724034776	50.573059526122	317.951898015379	989.476277434541	134.775986843309	342.576600166385	1126.588368115666	119.322681269720	326.059158453600	577.979272041468	1098.136912017441	241.188760304484	555.152193780079	839.629915593208	253.058222716390	925.187721922689	1138.437766594139	764.759647011873	1135.321724984304	1233.641649234441	669.451531166565	
20	17.583785714286	755.162325553434	963.127856765724	338.460586821536	564.512470790538	1007.273488569982	524.053364901149	702.973117092924	1436.052114642357	323.536074851471	831.667838519950	1366.033306144155	464.447324930707	777.633049226804	1437.404173540685	651.037813117956	727.395656582619	1496.075590076711	473.240857424622	801.167737879042	939.472414879631	609.923140874344	806.922591581757	729.240440529303	579.901249079199	715.045670942069	631.136690167124	648.064164065749	772.827249302298	570.180837068961	562.493261671687	759.153438638291	484.746524632223	568.741314826195	835.270941520145	775.809113783273	373.292484400036	787.633640502218	649.360030438041	298.807586366484	884.490097044249	587.512962551755	367.381065303830	912.448286943606	523.358791506977	365.059321785032	897.978518546329	452.299048252400	353.715384647727	838.852236792983	320.735873642572	299.269317302963	924.972538906583	224.608259501966	360.370910720016	725.210318937882	397.501790267982	576.636372404131	647.065012262243	298.932133957639	637.152113652223	681.500343594195	202.328439518333	573.897658354671	538.038497063689	42.039428200917	538.238794090554	706.727984833646	96.640278609636	583.196082950492	616.467648659632	35.892620156187	618.492361717336	824.736574119696	44.892665978052	619.847985742796	847.049254996021	38.307882226080	394.564462414308	924.605993629177	49.446661512032	318.691006974843	987.282662517964	132.614562505642	342.386472143866	1123.707832488136	115.420972391065	324.337622757226	576.709798669075	1098.153169926411	240.278120249559	554.830241790379	839.433275760531	252.089653712522	929.964826341394	1139.868083977592	761.380189352097	1135.055948830408	1242.115252024258	663.664824702812	
21	17.597142857143	755.372376587083	961.933269572825	337.243408939806	564.930611896752	1006.429901685180	522.983282677298	702.965298309404	1435.237551025910	322.315572134333	831.855032589068	1365.113263407010	462.957279326876	778.125321472224	1436.454115786424	649.567257259020	727.623298080732	1495.192195132324	472.022407331543	801.710901591246	938.736827456030	608.797028868356	805.863326224595	728.035786314938	579.175583849098	713.048165921318	630.464551054182	647.400041388944	770.422353344695	568.871858849917	562.046683432382	755.851531643452	483.470882407152	568.157459057136	835.482785220227	774.326357683452	371.232342027217	785.535273173951	647.307828919702	298.437845071273	883.290335148545	585.628535087094	365.515899706703	910.591289204268	521.264978996669	363.854890903360	895.746635659735	450.080960024349	353.017415836114	835.322263046544	318.851041067021	299.780708412797	921.378780941291	222.465003912921	360.339135789748	721.231247459513	396.650507050111	576.186059313228	642.396053287104	298.813563597324	636.898296267589	675.805426557741	201.841596282763	573.668777826743	531.320863421063	42.030217282278	538.290522537936	700.047584074839	96.506858643423	583.198306529205	609.734920680579	35.826134666362	618.515944603301	818.050259176924	44.601860237384	619.917109138951	842.104823219954	38.275980774394	396.159939009513	918.794958776223	47.837731048828	319.293087231461	983.345921018880	129.322589692083	342.219864127014	1118.920738101358	109.228998620505	322.535358710388	575.925604807846	1097.800991093106	238.957638503868	555.542094684631	838.814620830758	250.675840610509	934.233398003290	1140.999864018511	757.952104957512	1134.612876887678	1249.372238902242	657.999813708930	
